PathFileType	4	(X/Y/Z)	28_1_42_p0_0-318.trc
DataRate	CameraRate	NumFrames	NumMarkers	Units	OrigDataRate	OrigDataStartFrame	OrigNumFrames
59.0	59.0	5	27	m	59.0	119	319
Frame#	Time	RHip			RKnee			RAnkle			RBigToe			RSmallToe			RHeel			LHip			LKnee			LAnkle			LBigToe			LSmallToe			LHeel			Neck			Head			Nose			RShoulder			RElbow			RWrist			RThumb			RIndex			RPinky			LShoulder			LElbow			LWrist			LThumb			LIndex			LPinky			
		X1	Y1	Z1	X2	Y2	Z2	X3	Y3	Z3	X4	Y4	Z4	X5	Y5	Z5	X6	Y6	Z6	X7	Y7	Z7	X8	Y8	Z8	X9	Y9	Z9	X10	Y10	Z10	X11	Y11	Z11	X12	Y12	Z12	X13	Y13	Z13	X14	Y14	Z14	X15	Y15	Z15	X16	Y16	Z16	X17	Y17	Z17	X18	Y18	Z18	X19	Y19	Z19	X20	Y20	Z20	X21	Y21	Z21	X22	Y22	Z22	X23	Y23	Z23	X24	Y24	Z24	X25	Y25	Z25	X26	Y26	Z26	X27	Y27	Z27	
119	2.016949152542373	0.17996393467695548	0.7697389072965366	1.0310496919155028	0.19877267611219845	0.8671507899273507	1.3879294441469487	0.19412532825691373	1.0046959384087442	1.757234868791221	0.18058093547749152	0.9186073561338837	1.827575470834697	0.23156386300546405	0.9098803060336403	1.8114284329846233	0.18481704252000686	1.1444622887123896	1.80899566747097	-0.031103372727196526	0.7635139903156318	1.0369470440490633	-0.016371607766649778	0.9005506094097141	1.3932919159300508	-0.0019846434433902676	1.0663988343086241	1.757757147783922	0.010688089680842568	0.8736780016701899	1.8085657069558294	-0.04256980414689528	0.9298784534777471	1.81498457791876	0.007412983517226888	1.0988793562466506	1.7868403118997653	0.08343385459574466	0.405082702440108	0.6843018427089006	0.0713378794769165	0.12229255111569445	0.5148704400432517	0.06062604313582149	0.2354552674089706	0.6627577157332555	0.2313858390058296	0.4322393133840584	0.7010400886920906	0.2455759140583449	0.5530011117430281	0.8649337067413414	0.23432573584980612	0.3987818184444116	0.9344729343223369	0.22020913971753872	0.2671213090079429	0.9878175917168933	0.22822694827845943	0.24712920386219142	0.9876290044750772	0.23727314017519632	0.23794311588349315	1.012672204303666	-0.0472983746597206	0.4192718799016316	0.6661311339568087	-0.18565113556337395	0.662346660051777	0.7072496562155772	-0.08277954565200167	0.7856042173474773	0.7623362239042543	0.017824091173718817	0.5875487407608945	0.8111501109834868	-0.005668633407732411	0.604678450386202	0.8050173521448089	-0.05955438011148868	0.7721195769970819	0.8159643873933569
120	2.0338983050847457	0.1796558855280159	0.7670240373579083	1.0308504093589959	0.1932906810417253	0.849343309257547	1.3863649672121547	0.1941317166450055	1.0048217844776115	1.757222873418219	0.17966683135428624	0.9155606107568882	1.8225975083972399	0.2364314770213558	0.9102934899220427	1.8110038700416735	0.1845889659366382	1.1445646738121784	1.8090764615067807	-0.02794127116927747	0.7747278378188619	1.035616912972504	-0.017235308688888163	0.8971296701320125	1.3890533438738828	-0.002008086352988468	1.0663543736262437	1.7576194088332244	0.006297948409079962	0.890269403739825	1.812573847371465	-0.04750189146876053	0.929655274601642	1.815314776845121	0.007332163737707976	1.0984018912806894	1.7868960484779148	0.08653211374916969	0.4048265704250679	0.6803257152849004	0.05341812705493669	0.1395719076967058	0.5090443262258957	0.06060554394020001	0.21393317449099467	0.6667238648844509	0.2267357554106753	0.4187217744913857	0.7001380143555272	0.2411235966028704	0.551607708786164	0.8625586516418255	0.22560928302602878	0.39596490292257547	0.9273536320401077	0.21889100304224465	0.2658812475115437	0.9689740128062443	0.22353026601186504	0.23685687183075174	0.9785463915884081	0.2348873022112138	0.25083630938510637	1.005959922107715	-0.04678789465558389	0.4213621898131346	0.6689943705134842	-0.18333602227712187	0.6374175091822956	0.7131614262452798	-0.09316271508950542	0.7815272407212831	0.7614658780573781	-0.032923210978563176	0.7163717351215739	0.7847503536626973	-0.04594347449307702	0.6828745911529236	0.7860446549688931	-0.08324192786443299	0.708567397938442	0.7827316250862086
121	2.0508474576271185	0.17649082277080874	0.7556305092987319	1.0352419314911374	0.19849569560475586	0.8641857976160882	1.391311298673727	0.19416235408678278	1.0048246838078594	1.7573459503389142	0.18101063660750108	0.9190365288364073	1.8272276578591216	0.23186409438220631	0.910248831913828	1.811258037972277	0.18477905142450568	1.1446513360842734	1.8091749095321863	-0.031059395934648994	0.7609005410767855	1.0405769362105732	-0.015888702763357323	0.9005456468426544	1.398594144935094	-0.006412560010119704	1.0517080483631251	1.759141036518142	0.006608179224702807	0.889714361095975	1.8167848253531602	-0.047694882618751384	0.9296848397631757	1.8154658449777663	0.007496939886458726	1.0978226270210707	1.7867769960354472	0.08545650734646276	0.40384885487323785	0.6798143921860401	0.045495953945586996	0.15904751376170406	0.501193566021755	0.05288414119388594	0.22165093648012538	0.6589781891327642	0.22576323887107552	0.39334994335576623	0.6961140467309026	0.24257542280842836	0.5533897475131306	0.8638088922662492	0.2254182112871668	0.3957571320069252	0.9273380962558174	0.21254212655982962	0.2638070820390364	0.9599197834720312	0.22274951101485124	0.23417091805788282	0.9677761578903102	0.22752907981290263	0.23709582730271334	1.0014934702193934	-0.0468635281066746	0.42167896601958793	0.6688127694408713	-0.18412346288561549	0.6337698551015761	0.7129824712302907	-0.07028082640942042	0.6916853237587112	0.7803385060185942	0.07040488200817475	0.40032266725035903	0.819853910573425	0.07410599040745029	0.37174187759669325	0.8136250437982258	-0.06254809269250307	0.7587156008439955	0.805910471002366
122	2.0677966101694913	0.18096817281046076	0.7575004079062595	1.0345128945160975	0.2023875668373985	0.8651200184329229	1.3871858693318067	0.19870598404908157	1.0211180930402373	1.7602419966562786	0.17973325365703285	0.9159219340251605	1.8226920804030844	0.2363609037966839	0.9107635773731796	1.8111647268723141	0.18470979218885478	1.1452122136722396	1.8094471141303237	-0.027859652004494723	0.7747962397067377	1.0354384857987193	-0.015798942249116578	0.9008737710490111	1.3988319587242148	-0.0009455792930097636	1.0378739169439697	1.7607109364552505	0.006172122776694511	0.8897716985877144	1.81224771719131	-0.05238538844604728	0.9454629167264005	1.8190359627336736	0.007562939315004807	1.0975434387229048	1.7868869644175993	0.08039260815019449	0.4153430905133826	0.6745908137260105	0.03524815317018389	0.15815769499668314	0.49845477777174463	0.05186778481623154	0.21912955613828813	0.6524635663235041	0.21662417913930535	0.37758290988658705	0.6880503566433716	0.24879821548396494	0.5350782330044515	0.8531107635224848	0.22433098397245907	0.3901692512009433	0.9130538657523134	0.21547579985141707	0.23579009125874317	0.9567732638737707	0.22302138774970265	0.23387198706815188	0.9713627725631283	0.23008104794126952	0.23347026358398087	0.988145993319425	-0.0465694105864819	0.42357672648278183	0.6719537296478372	-0.18072367810245776	0.6702322293827018	0.7130829489658492	-0.08651525507938752	0.8093160908142506	0.7620536098021267	0.042508142249519876	0.5236211442557638	0.8044136072097247	0.06834297834734242	0.43902614255989586	0.809945190716775	-0.020740083725051206	0.8980083728194741	0.80271183357032
123	2.0847457627118646	0.18560114830137447	0.7705790288154408	1.0342201083530131	0.2027722839239604	0.8649388279383747	1.3910461503795049	0.19869670313503346	1.0209712673847817	1.7601816789885598	0.18444806478566833	0.9162416691909132	1.8223941880049128	0.2365266242830969	0.9104040977382639	1.8109895213956804	0.18059042545400564	1.1429144322344427	1.8089754687632948	-0.027414429238021645	0.7751601656824469	1.0398726967374685	-0.014991533232479176	0.9012190460846616	1.4070143335300296	-0.0009631888320121346	1.0377149734261548	1.7608595754233374	0.0039971340985582296	0.877113961988579	1.8138547713751634	-0.052181728977190235	0.9286806606491609	1.81557179497255	0.00652688507004075	1.099438387308887	1.7917356237992654	0.07306119569987807	0.4137446372147346	0.6751832539526729	0.03481646672539471	0.15779654334770699	0.49798218218341644	0.046023855540000706	0.22143226117455445	0.6559295106741252	0.2126355274039208	0.38753671729653755	0.6793050929316893	0.2419916622288139	0.5482308213993277	0.8511000712623169	0.227420662946801	0.37912549453796784	0.9171819968254432	0.214656888019212	0.23444627368604173	0.9490146203598883	0.2223212210848811	0.23305113508529665	0.9641298439934797	0.22302584362030842	0.23585176575788652	0.9839495174752009	-0.05419765524437717	0.40936299085068123	0.6712326314519674	-0.18490984948465713	0.6317521104102903	0.719161719344753	-0.08817802377593585	0.8000913507695314	0.757972258753211	-0.018734209106155465	0.7326009518919945	0.7732407425360971	0.09032513436145759	0.3924430131524634	0.8122551640309463	0.021067925242400663	1.0373011447949527	0.7995131961382742
